<svg xmlns="http://www.w3.org/2000/svg" xmlns:xlink="http://www.w3.org/1999/xlink" viewBox="0 0 500 500"><defs><clipPath id="freepik--clip-path--inject-268"><path d="M144.7,365.87c16.15,8.65,33.08-.27,33.08-.27,13.3,8.92,20.13,7.32,20.13,7.32l33.43,55.35,146.09-2.87s1.53-38.63,0-51.38c-7.95-66.09-40.68-79.52-75-88s-69.71-7.11-97.9.41c-38.4,10.23-59.82,30.85-59.82,30.85s-19.9,4-24.3,15.5C120.4,332.8,135.65,361,144.7,365.87Z" style="fill:#E37575;stroke:#263238;stroke-linecap:round;stroke-linejoin:round"></path></clipPath><clipPath id="freepik--clip-path-2--inject-268"><path d="M185.87,399.26,144.7,420.49l-70.21-8.78-3-3.17,2.93-1.36h0L115.73,388a70.7,70.7,0,0,1,36.15-1.79,128.46,128.46,0,0,1,29.6,10.65C184.3,398.31,185.87,399.26,185.87,399.26Z" style="fill:#fff;stroke:#263238;stroke-linecap:round;stroke-linejoin:round"></path></clipPath><clipPath id="freepik--clip-path-3--inject-268"><path d="M262.31,404.73l-2.92,4.11-45.31,20.67-69.38-9,4.22-2.18,37-19.05a94.37,94.37,0,0,1,29.44-4.37c15.12.06,43.44,8.73,46.69,9.74Z" style="fill:#fff;stroke:#263238;stroke-linecap:round;stroke-linejoin:round"></path></clipPath><clipPath id="freepik--clip-path-4--inject-268"><path d="M162.91,355.15c-5.09,17.68-28.72,25.9-28.72,25.9s-31.92,12.13-34-17.73c0,0,1.59-14.59,11.12-20,0,0,6.92-13.74,17.36-19.62" style="fill:#E37575;stroke:#263238;stroke-linecap:round;stroke-linejoin:round"></path></clipPath><clipPath id="freepik--clip-path-5--inject-268"><path d="M334.89,300.69c21,1.2,63.13,43.91,72.63,54.46s25,26.32,30,38.8C445.2,413,426,430.52,407,429.51s-58.55-41.93-58.55-41.93-30.17-28.11-21.87-53.51" style="fill:#E37575;stroke:#263238;stroke-linecap:round;stroke-linejoin:round"></path></clipPath><clipPath id="freepik--clip-path-6--inject-268"><path d="M394.45,370.4c-20.84,2.83-46.14,15.11-53.81,12.55s-25.85,8.69-25.85,8.69l-10.7.14s-7.91,17.54-3.16,30.24L312,423.11s-.82,7,28.23,8.9,82.94,4.08,93.44-14.84" style="fill:#E37575;stroke:#263238;stroke-linecap:round;stroke-linejoin:round"></path></clipPath></defs><g id="freepik--abstract-texts--inject-268"><path d="M74.25,283.57s7.67-3.9,10.06-3.6-4.24,3,0,3,5.82-1.5,5.82-.6.3,1.65,2.4,1.2,2.62.12,3.68.13a21.45,21.45,0,0,0,5.5-.88c1.91-.6,4-1.35,5.35-.3s.79,1.62,5.55,1.18a35.39,35.39,0,0,1,8.21.15" style="fill:none;stroke:#263238;stroke-linecap:round;stroke-linejoin:round"></path><path d="M74.06,301.33c3.73-.72,12-4.77,9.59-4.32s-6.92,3.15-1.07,3.3,7.19-1.95,8.79-2.55,7.19,0,8,0-4.53,1.13,0,1.39,5-.56,6.74,0a12.27,12.27,0,0,0,4.71,0s.83.86,5.07,1,7.44,0,7.44,0" style="fill:none;stroke:#263238;stroke-linecap:round;stroke-linejoin:round"></path><path d="M71.14,291.94s11.18-.51,13.31-1.11,1.06-2.1,4-1.5,4.79-.58,7.32-.14,9.11,0,6.26-1.06-8.22,2.55-2.11,2.7,8.77-.44,9.3-.89,3.74.89,3.74.89,3.45-1.19,5-.89,8.26,1,8.26,1" style="fill:none;stroke:#263238;stroke-linecap:round;stroke-linejoin:round"></path><path d="M355.16,196.37s8.25-4.19,10.81-3.87-4.55,3.22,0,3.22,6.25-1.61,6.25-.64.33,1.77,2.58,1.29,2.82.13,4,.14a22.77,22.77,0,0,0,5.9-.95c2.06-.64,4.33-1.45,5.76-.32s.85,1.74,6,1.27a38.15,38.15,0,0,1,8.81.16" style="fill:none;stroke:#263238;stroke-linecap:round;stroke-linejoin:round"></path><path d="M356.44,237.78s8.25-4.19,10.81-3.86-4.55,3.22,0,3.22,6.25-1.61,6.25-.64.33,1.77,2.58,1.28,2.82.13,4,.15a23.21,23.21,0,0,0,5.9-1c2.06-.65,4.33-1.45,5.76-.32s.85,1.74,6,1.27a37.48,37.48,0,0,1,8.81.16" style="fill:none;stroke:#263238;stroke-linecap:round;stroke-linejoin:round"></path><path d="M355.16,205.86c4.71-.72,15.14-4.79,12.11-4.34s-8.74,3.17-1.34,3.32,9.08-2,11.1-2.56,9.08,0,10.09,0-5.72,1.14,0,1.4,6.27-.56,8.51,0a19.5,19.5,0,0,0,5.95,0s1.05.86,6.41,1,9.4,0,9.4,0" style="fill:none;stroke:#263238;stroke-linecap:round;stroke-linejoin:round"></path><path d="M356.24,256.87c4-.77,12.87-5.12,10.3-4.64s-7.44,3.39-1.15,3.55,7.73-2.1,9.45-2.74,7.72,0,8.58,0-4.86,1.22,0,1.49,5.34-.6,7.25,0a13.16,13.16,0,0,0,5.05,0s.9.92,5.46,1.09,8,0,8,0" style="fill:none;stroke:#263238;stroke-linecap:round;stroke-linejoin:round"></path><path d="M355.16,230.73c4-.77,12.8-5.12,10.24-4.64s-7.4,3.38-1.14,3.54,7.68-2.09,9.38-2.74,7.68,0,8.53,0-4.83,1.22,0,1.5,5.3-.6,7.2,0a13.06,13.06,0,0,0,5,0s.89.92,5.42,1.08,7.94,0,7.94,0" style="fill:none;stroke:#263238;stroke-linecap:round;stroke-linejoin:round"></path><path d="M353.74,214.41c3.93-1,4.72-4,7.34-3.08s5.77.4,6.56-.18a11.68,11.68,0,0,1,4.46-1.55c1,0,0,1.16,0,2.41s3.41.48,4.19,0,2.1-1.06,3,0l.92,1.05s1.83,0,2.36-1.05a4.24,4.24,0,0,1,4.72-2.41c2.62.58-.79,1.24,1,2.35s2.36-2.35,4.2-.81,0,2.31,1.57,2.31,9.8-1.33,13.64-.39" style="fill:none;stroke:#263238;stroke-linecap:round;stroke-linejoin:round"></path><path d="M355.16,222.54s11.94-.55,14.22-1.19,1.13-2.26,4.26-1.61,5.12-.63,7.82-.15,9.72,0,6.68-1.14-8.77,2.74-2.25,2.9,9.36-.47,9.93-1,4,1,4,1,3.67-1.28,5.38-1,8.81,1.12,8.81,1.12" style="fill:none;stroke:#263238;stroke-linecap:round;stroke-linejoin:round"></path><path d="M353.09,246.78s12-.55,14.31-1.19,1.14-2.26,4.29-1.61,5.15-.62,7.87-.15,9.78,0,6.72-1.14-8.83,2.74-2.27,2.9,9.42-.47,10-1,4,1,4,1,3.7-1.28,5.42-1,8.87,1.12,8.87,1.12" style="fill:none;stroke:#263238;stroke-linecap:round;stroke-linejoin:round"></path><path d="M110.35,156.58c3.93-.76,6.37-4.43,10.65-3.82l.61.62-1.83,1.83c2.44,1.83,4.89,0,7.33,0,.61,0,.61,1.22,1.22,1.22,5.5.61,11-.61,16.5-1.22a8,8,0,0,0,8,1.42" style="fill:none;stroke:#263238;stroke-linecap:round;stroke-linejoin:round"></path><path d="M110.15,175.67c4.13-.3,7.18-2.74,10.85-4.57-1.83,1.22-3.67,0-4.89,2.44,3.67,2.44,8.56,0,12.22-1.22,3.06-1.22,6.11-.61,9.09-.47-1.14.52-2.68-.21,0,0-1.14.52-3.26,1.1-.72,1.43s5.47-.74,7.87.05" style="fill:none;stroke:#263238;stroke-linecap:round;stroke-linejoin:round"></path><path d="M109.07,149.52c4-.77,12.79-5.12,10.23-4.64s-7.39,3.39-1.13,3.55,7.67-2.1,9.38-2.74,7.67,0,8.53,0-4.84,1.22,0,1.5,5.3-.6,7.2,0a13.22,13.22,0,0,0,5,0s.89.92,5.42,1.08,19.41.86,19.41.86" style="fill:none;stroke:#263238;stroke-linecap:round;stroke-linejoin:round"></path><path d="M109.07,141.34s11.94-.55,14.21-1.2,1.14-2.25,4.27-1.61,5.12-.62,7.82-.15,9.72,0,6.68-1.14-8.78,2.74-2.26,2.9,9.37-.47,9.93-1,4,1,4,1,3.68-1.27,5.39-1,8.81,1.12,8.81,1.12" style="fill:none;stroke:#263238;stroke-linecap:round;stroke-linejoin:round"></path><path d="M107,165.58s12-.55,14.3-1.2,1.15-2.25,4.3-1.61,5.15-.62,7.86-.15,9.79,0,6.73-1.14-8.83,2.74-2.27,2.9,9.42-.47,10-1,4,1,4,1,3.7-1.27,5.41-1,8.87,1.13,8.87,1.13" style="fill:none;stroke:#263238;stroke-linecap:round;stroke-linejoin:round"></path></g><g id="freepik--Hearts--inject-268"><path d="M103.81,208.69c6.34-2.59,10.66,1.07,12.67,3.49,1.56-2.74,5.16-7.11,11.87-5.69,7.27,1.55,10.54,10.34,5.32,19.11-3.76,6.31-10.3,11-13.68,13.09-.4.26-.77.48-1.07.65-.32-.12-.73-.26-1.17-.44-3.69-1.48-11-4.91-15.78-10.45C95.27,220.75,96.93,211.51,103.81,208.69Z" style="fill:none;stroke:#263238;stroke-linecap:round;stroke-linejoin:round"></path><path d="M134.27,244.74a4.86,4.86,0,0,1,5.26,3,4.85,4.85,0,0,1,5.93-1.21c3.08,1.51,3.54,5.81.23,9.13a19.85,19.85,0,0,1-7.58,4.3l-.55.17-.48-.33a19.84,19.84,0,0,1-5.86-6.44C129.09,249.16,130.88,245.22,134.27,244.74Z" style="fill:none;stroke:#263238;stroke-linecap:round;stroke-linejoin:round"></path></g><g id="freepik--Faces--inject-268"><path d="M397.44,294.86a18,18,0,0,0,1,9.28,17.5,17.5,0,0,0,2.16,4.05,18.31,18.31,0,1,0-3.16-13.33Z" style="fill:none;stroke:#263238;stroke-linecap:round;stroke-linejoin:round"></path><path d="M406.88,304.65s4.09-4.15,9-3.4a9.23,9.23,0,0,1,6.8,5" style="fill:none;stroke:#263238;stroke-linecap:round;stroke-linejoin:round"></path><path d="M421.2,290.17a7.39,7.39,0,0,0,5.62,3.81" style="fill:none;stroke:#263238;stroke-linecap:round;stroke-linejoin:round"></path><path d="M424.47,294.66a1.59,1.59,0,1,1-1.33-1.81A1.59,1.59,0,0,1,424.47,294.66Z" style="fill:none;stroke:#263238;stroke-linecap:round;stroke-linejoin:round"></path><path d="M424.37,295.35s1.56.4.81,2.16,2.34,2.16,2.79,2.77-1.06,2.9.62,3.62,1.55,2.19,1.06,3.37a2.3,2.3,0,0,0,.29,1.67" style="fill:none;stroke:#263238;stroke-linecap:round;stroke-linejoin:round"></path><path d="M422.66,296c0,1.6-.54,2.61,1.74,4.14s0,3.29.45,4.21,3,.43,1.46,3.26a4.77,4.77,0,0,0,.36,4.55" style="fill:none;stroke:#263238;stroke-linecap:round;stroke-linejoin:round"></path><path d="M412.37,288.83a7.39,7.39,0,0,1-6.5,1.95" style="fill:none;stroke:#263238;stroke-linecap:round;stroke-linejoin:round"></path><path d="M407.91,292.14a1.59,1.59,0,1,0,1.81-1.33A1.58,1.58,0,0,0,407.91,292.14Z" style="fill:none;stroke:#263238;stroke-linecap:round;stroke-linejoin:round"></path><path d="M398.44,304.14a2.31,2.31,0,0,0,.77-1.5c-.12-1.28.18-2.72,2-2.91s1.06-2.82,1.67-3.27,3.67.09,3.49-1.82,1.43-1.81,1.43-1.81" style="fill:none;stroke:#263238;stroke-linecap:round;stroke-linejoin:round"></path><path d="M400.6,308.19a4.79,4.79,0,0,0,1.7-4.24c-.61-3.15,1.7-1.92,2.37-2.67s-.94-3.12,1.68-3.89,2.41-1.91,2.89-3.43" style="fill:none;stroke:#263238;stroke-linecap:round;stroke-linejoin:round"></path><path d="M313.82,163A26,26,0,0,0,321.39,174a25.44,25.44,0,0,0,5.48,3.66A26.3,26.3,0,1,0,313.82,163Z" style="fill:none;stroke:#263238;stroke-linecap:round;stroke-linejoin:round"></path><path d="M353.92,147.33s-2.55,4.8-13.65,8.24A51.84,51.84,0,0,1,322.55,158s4.59,18.43,22.31,13.79S353.92,147.33,353.92,147.33Z" style="fill:none;stroke:#263238;stroke-linecap:round;stroke-linejoin:round"></path><path d="M340.72,140.91s-.19-7.64,6.76-1.2" style="fill:none;stroke:#263238;stroke-linecap:round;stroke-linejoin:round"></path><path d="M328.64,145.2s-4.4-4.09-4.87,2.92" style="fill:none;stroke:#263238;stroke-linecap:round;stroke-linejoin:round"></path><path d="M343.1,164.38s4.18-4.83,7.2-4.29,2.38,6.31-6.13,9.33-12.11-.93-11.9-4S343.1,164.38,343.1,164.38Z" style="fill:none;stroke:#263238;stroke-linecap:round;stroke-linejoin:round"></path><path d="M349.12,139.13s8.14-2.3,6.88,1.45S349.12,139.13,349.12,139.13Z" style="fill:none;stroke:#263238;stroke-linecap:round;stroke-linejoin:round"></path><path d="M322.2,148.68s-6.88,1.54-5.22,4.23S322.2,148.68,322.2,148.68Z" style="fill:none;stroke:#263238;stroke-linecap:round;stroke-linejoin:round"></path></g><g id="freepik--light-bulb--inject-268"><path d="M258.15,119.77a30,30,0,1,0-49.95,13.56l-.06,4,26.4,7.16,2-3.44A30,30,0,0,0,258.15,119.77Z" style="fill:none;stroke:#263238;stroke-linecap:round;stroke-linejoin:round"></path><path d="M222.89,167l-16.1-4.37a4.28,4.28,0,0,1-3.1-4.85L207.2,137l28.29,7.67L228,164.41A4.28,4.28,0,0,1,222.89,167Z" style="fill:none;stroke:#263238;stroke-linecap:round;stroke-linejoin:round"></path><path d="M223.09,167.48c-.76,2.82-5.12,4.09-9.73,2.84s-7.74-4.56-7-7.38" style="fill:none;stroke:#263238;stroke-linecap:round;stroke-linejoin:round"></path><polyline points="213.16 115.06 219.88 116.88 226.45 109.2 226.73 127.46 235.93 113.75 236.69 121.06 241.54 122.38" style="fill:none;stroke:#263238;stroke-linecap:round;stroke-linejoin:round"></polyline><line x1="242.45" y1="71.68" x2="251.68" y2="53.61" style="fill:none;stroke:#263238;stroke-linecap:round;stroke-linejoin:round"></line><line x1="268.98" y1="90.49" x2="283.71" y2="85.43" style="fill:none;stroke:#263238;stroke-linecap:round;stroke-linejoin:round"></line><line x1="268.45" y1="124.66" x2="282.14" y2="126.73" style="fill:none;stroke:#263238;stroke-linecap:round;stroke-linejoin:round"></line><line x1="208.48" y1="77.2" x2="201.05" y2="55.69" style="fill:none;stroke:#263238;stroke-linecap:round;stroke-linejoin:round"></line><line x1="188.76" y1="112.6" x2="178.55" y2="111.06" style="fill:none;stroke:#263238;stroke-linecap:round;stroke-linejoin:round"></line></g><g id="freepik--Character--inject-268"><path d="M237.47,192.9s4.08-32.54,26.74-25.29,28.38,32.89,24.84,56,.47,27.39.47,27.39-6.53-7.52-4.23-24c0,0-3.48,18.51-.32,25.89,0,0-1.65,3.71-6.54,2.55,0,0-8.24-19.51-8.18-37.62S237.47,192.9,237.47,192.9Z" style="fill:#263238"></path><g style="opacity:0.2"><path d="M246.93,184.33s3.34-15.24,16.81-14.25" style="fill:none;stroke:#fff;stroke-linecap:round;stroke-linejoin:round"></path><path d="M256.7,189.93s4.17-10.08,11.94-9.53,15.82,15.18,15.16,27.35-6.51,29.73-1.21,43.2" style="fill:none;stroke:#fff;stroke-linecap:round;stroke-linejoin:round"></path><path d="M262.46,196s9.51-2.75,12,6.12,0,28.89,0,28.89" style="fill:none;stroke:#fff;stroke-linecap:round;stroke-linejoin:round"></path></g><path d="M235.27,190.25s.8-4.35,7.72-3,20.3,7.91,13.71,13.64S235.27,190.25,235.27,190.25Z" style="fill:#E37575;stroke:#263238;stroke-linecap:round;stroke-linejoin:round"></path><path d="M144.7,365.87c16.15,8.65,33.08-.27,33.08-.27,13.3,8.92,20.13,7.32,20.13,7.32l33.43,55.35,146.09-2.87s1.53-38.63,0-51.38c-7.95-66.09-40.68-79.52-75-88s-69.71-7.11-97.9.41c-38.4,10.23-59.82,30.85-59.82,30.85s-19.9,4-24.3,15.5C120.4,332.8,135.65,361,144.7,365.87Z" style="fill:#E37575"></path><g style="clip-path:url(#freepik--clip-path--inject-268)"><path d="M351.58,397,203.39,382l-5.48-9.08s-6.83,1.6-20.13-7.32c0,0-11.38,6-24.38,3.39C172.72,348.5,157,329,157,329a14.55,14.55,0,0,1,9.15,8.77S166,327.53,168.8,329s11.49,17.63,11.49,17.63c-4.36-38.7,10.79-43.18,10.79-43.18-9.38,27.74,13.34,67.16,48.15,75.73s79.52,4.26,79.52,4.26c-4-5-2.88-14.56-2.88-14.56,3.39,4,16.33,10.3,16.33,10.3-5.15-12.78,5.14-22.69,5.14-22.69Z" style="fill-opacity:0.7000000000000001;opacity:0.30000000000000004"></path><path d="M305.93,317.3c-24.28,27-58.44,9-58.44,9C222.91,335,214,310.24,213.78,308c-1.16-11.65,4.27-20,12.64-25.88a205.18,205.18,0,0,1,76,4c2.45.6,4.89,1.23,7.31,1.91C314.57,296.27,315.69,306.47,305.93,317.3Z" style="fill-opacity:0.7000000000000001;opacity:0.30000000000000004"></path></g><path d="M144.7,365.87c16.15,8.65,33.08-.27,33.08-.27,13.3,8.92,20.13,7.32,20.13,7.32l33.43,55.35,146.09-2.87s1.53-38.63,0-51.38c-7.95-66.09-40.68-79.52-75-88s-69.71-7.11-97.9.41c-38.4,10.23-59.82,30.85-59.82,30.85s-19.9,4-24.3,15.5C120.4,332.8,135.65,361,144.7,365.87Z" style="fill:none;stroke:#263238;stroke-linecap:round;stroke-linejoin:round"></path><path d="M236.57,329.38s-13.48-3.74-6.06-25.63S245.23,267,267,267.32s37.42,18.94,38.78,26.24-8.34,32.64-28.44,40.51" style="fill:#E37575;stroke:#263238;stroke-linecap:round;stroke-linejoin:round"></path><path d="M191.08,353.58s-7.93-25.9-1.93-39.13" style="fill:none;stroke:#263238;stroke-linecap:round;stroke-linejoin:round"></path><g style="opacity:0.4"><path d="M248.33,355.32a96.25,96.25,0,0,0,3.16,22.45" style="fill:none;stroke:#263238;stroke-linecap:round;stroke-linejoin:round"></path><path d="M249.26,344.8a33.44,33.44,0,0,0-.78,5.45" style="fill:none;stroke:#263238;stroke-linecap:round;stroke-linejoin:round"></path><path d="M269.18,378.21c.36,1.09.76,2.18,1.2,3.25" style="fill:none;stroke:#263238;stroke-linecap:round;stroke-linejoin:round"></path><path d="M262.46,346.67C265,356,265,366,268.07,374.54" style="fill:none;stroke:#263238;stroke-linecap:round;stroke-linejoin:round"></path><path d="M278.53,344.8s12.39,26.73,14.5,39.08" style="fill:none;stroke:#263238;stroke-linecap:round;stroke-linejoin:round"></path><path d="M299,347.94c5.51,12.13,10.57,24.71,13.47,37.74" style="fill:none;stroke:#263238;stroke-linecap:round;stroke-linejoin:round"></path><path d="M294.35,338.21c1,2,2,4,2.94,6" style="fill:none;stroke:#263238;stroke-linecap:round;stroke-linejoin:round"></path><path d="M237.47,340.32a116.79,116.79,0,0,0-4.89,36.84" style="fill:none;stroke:#263238;stroke-linecap:round;stroke-linejoin:round"></path><path d="M218.39,343.13a79.59,79.59,0,0,0-3.93,29.79" style="fill:none;stroke:#263238;stroke-linecap:round;stroke-linejoin:round"></path><path d="M224.77,330.56a38.25,38.25,0,0,0-4.65,8.15" style="fill:none;stroke:#263238;stroke-linecap:round;stroke-linejoin:round"></path><path d="M211.27,317.37s-13.36,15.3-15,33.23" style="fill:none;stroke:#263238;stroke-linecap:round;stroke-linejoin:round"></path><path d="M319.3,345.21a51.42,51.42,0,0,1,2.48,5.39" style="fill:none;stroke:#263238;stroke-linecap:round;stroke-linejoin:round"></path><path d="M299.41,321.26a81,81,0,0,1,17.79,20.26" style="fill:none;stroke:#263238;stroke-linecap:round;stroke-linejoin:round"></path><path d="M308.59,307.49s15,2.5,21.63,11.2" style="fill:none;stroke:#263238;stroke-linecap:round;stroke-linejoin:round"></path><path d="M308.59,293.56s10.9-1.24,19.91,3.12" style="fill:none;stroke:#263238;stroke-linecap:round;stroke-linejoin:round"></path><path d="M203.28,304.57a19.83,19.83,0,0,1,5.36-.82" style="fill:none;stroke:#263238;stroke-linecap:round;stroke-linejoin:round"></path><path d="M193.41,309.2a37.46,37.46,0,0,1,5.94-3.22" style="fill:none;stroke:#263238;stroke-linecap:round;stroke-linejoin:round"></path><path d="M189.72,303.49c-6.4-.62-28.87,16.14-28.87,16.14a12.88,12.88,0,0,0-10.76,4.05" style="fill:none;stroke:#263238;stroke-linecap:round;stroke-linejoin:round"></path><path d="M183.58,332.35l-7.38,4.28s-4,6.7-10.08,6.5" style="fill:none;stroke:#263238;stroke-linecap:round;stroke-linejoin:round"></path><path d="M187,356.53s-3.38,2.06-6,1.49c0,0-11.55,8.14-18,5.24" style="fill:none;stroke:#263238;stroke-linecap:round;stroke-linejoin:round"></path></g><g style="opacity:0.4"><path d="M249.26,325.55s-2.92,3.69,2.23,8.44" style="fill:none;stroke:#263238;stroke-linecap:round;stroke-linejoin:round"></path><path d="M266.6,330.72A8.83,8.83,0,0,1,267,334" style="fill:none;stroke:#263238;stroke-linecap:round;stroke-linejoin:round"></path><path d="M262.31,323.68a22.69,22.69,0,0,1,2.73,3.65" style="fill:none;stroke:#263238;stroke-linecap:round;stroke-linejoin:round"></path><path d="M274.49,315.79s5.84,1.32,8.1,9.76" style="fill:none;stroke:#263238;stroke-linecap:round;stroke-linejoin:round"></path><path d="M294,309.42a19.1,19.1,0,0,1,1.79,5" style="fill:none;stroke:#263238;stroke-linecap:round;stroke-linejoin:round"></path><path d="M283.8,302a13.53,13.53,0,0,1,7.47,3.74" style="fill:none;stroke:#263238;stroke-linecap:round;stroke-linejoin:round"></path><path d="M285.78,286s8.84-5.06,16,6" style="fill:none;stroke:#263238;stroke-linecap:round;stroke-linejoin:round"></path><path d="M278.54,275.4c1.29-1.69,3.68-2.23,5.68-2.32" style="fill:none;stroke:#263238;stroke-linecap:round;stroke-linejoin:round"></path><path d="M237.47,325.55s-1.38-4.39,2-6.86" style="fill:none;stroke:#263238;stroke-linecap:round;stroke-linejoin:round"></path></g><polygon points="474.93 411.23 474.93 483.99 25.07 483.99 25.32 356.53 83.48 363.61 195.61 377.25 368.4 398.27 457.13 409.06 474.93 411.23" style="fill:#fff"></polygon><path d="M450.51,426.18c-13.14,16.47-142.5,11.3-149,7A53.49,53.49,0,0,0,286.59,427s-30.65,3.86-36.46.54-17.94-2.11-17.94-2.11l-28.83,11.75L48.56,416.61l37-12.79s-22.82-2.35-27.24-10.24,25.17-30,25.17-30l112.13,13.64-40.49,3.49-21.42,9.81,56.18,10.66,63-2.52,115.55-.42,88.73,10.79C457.26,413.69,455.79,419.55,450.51,426.18Z" style="fill:#E37575;opacity:0.4"></path><line x1="25.32" y1="356.53" x2="474.93" y2="411.23" style="fill:none;stroke:#263238;stroke-linecap:round;stroke-linejoin:round"></line><polygon points="213.19 432.87 66.15 413.72 119.04 390.55 266.09 409.71 213.19 432.87" style="fill:#E37575;stroke:#263238;stroke-linecap:round;stroke-linejoin:round"></polygon><path d="M185.87,399.26,144.7,420.49l-70.21-8.78-3-3.17,2.93-1.36h0L115.73,388a70.7,70.7,0,0,1,36.15-1.79,128.46,128.46,0,0,1,29.6,10.65C184.3,398.31,185.87,399.26,185.87,399.26Z" style="fill:#fff"></path><g style="clip-path:url(#freepik--clip-path-2--inject-268)"><path d="M185.87,399.26,144.7,420.49l-70.21-8.78-3-3.17,2.93-1.36h0a80.31,80.31,0,0,1,24.31-.84c16.58,2.09,35.67,8.53,35.67,8.53s5,3.58,7.35-.74,13.55-4.32,19.14-6.1c5.38-1.71,14-9.85,20.63-11.15C184.3,398.31,185.87,399.26,185.87,399.26Z" style="fill-opacity:0.7000000000000001;opacity:0.30000000000000004"></path></g><path d="M185.87,399.26,144.7,420.49l-70.21-8.78-3-3.17,2.93-1.36h0L115.73,388a70.7,70.7,0,0,1,36.15-1.79,128.46,128.46,0,0,1,29.6,10.65C184.3,398.31,185.87,399.26,185.87,399.26Z" style="fill:none;stroke:#263238;stroke-linecap:round;stroke-linejoin:round"></path><path d="M262.31,404.73l-2.92,4.11-45.31,20.67-69.38-9,4.22-2.18,37-19.05a94.37,94.37,0,0,1,29.44-4.37c15.12.06,43.44,8.73,46.69,9.74Z" style="fill:#fff"></path><g style="clip-path:url(#freepik--clip-path-3--inject-268)"><path d="M262.31,404.73l-2.92,4.11-45.31,20.67-69.38-9,4.22-2.18c9-2.14,21.38-4.12,31.36-2.41a241.23,241.23,0,0,1,32.95,8.27s37-15.74,48.77-19.54Z" style="fill-opacity:0.7000000000000001;opacity:0.30000000000000004"></path></g><path d="M262.31,404.73l-2.92,4.11-45.31,20.67-69.38-9,4.22-2.18,37-19.05a94.37,94.37,0,0,1,29.44-4.37c15.12.06,43.44,8.73,46.69,9.74Z" style="fill:none;stroke:#263238;stroke-linecap:round;stroke-linejoin:round"></path><path d="M144.7,420.49s10.49-4.22,29.58-4.73,38.95,8.41,38.95,8.41l45.82-18.59" style="fill:none;stroke:#263238;stroke-linecap:round;stroke-linejoin:round"></path><path d="M157,419.07a217.06,217.06,0,0,1,56.39,8L232.58,419" style="fill:none;stroke:#263238;stroke-linecap:round;stroke-linejoin:round"></path><path d="M71.44,408.54s10.94-4.74,37.16-1.18S143.48,419,143.48,419" style="fill:none;stroke:#263238;stroke-linecap:round;stroke-linejoin:round"></path><path d="M73.37,410.55s11.56-2.92,32.94,0S140.93,419,140.93,419" style="fill:none;stroke:#263238;stroke-linecap:round;stroke-linejoin:round"></path><g style="opacity:0.4"><path d="M149.73,412.93s-4.41-.09-3.84-1.7-4.32-1.42-5.83-2.8-3.69-1.62-4.87-2.39,1.78-.89-2.38-2.22-5.21.88-9.36-.6,2.29-1.58-3.69-2-2.89.3-8.47,0-5.18,1.29-6.76,0-15.8,1.38-15.8,1.38" style="fill:none;stroke:#263238;stroke-linecap:round;stroke-linejoin:round"></path><path d="M158,408.86l-3.34-1.5c-.44-.2-.94-.47-1-.94-.05-.29.07-.62-.08-.87s-.51-.3-.81-.31l-3-.15a3.81,3.81,0,0,0-2.74-1.92,34.68,34.68,0,0,1-3.4-.69,13.26,13.26,0,0,1-2.13-1.07,34.27,34.27,0,0,0-16.22-4.2l1.4-1a25.2,25.2,0,0,0-11.46,1.24,1.75,1.75,0,0,0,.57-1.32l-12.88,1.16" style="fill:none;stroke:#263238;stroke-linecap:round;stroke-linejoin:round"></path><path d="M166.44,405.45a1.92,1.92,0,0,1-2-2,1.14,1.14,0,0,0,0-.73c-.2-.35-.72-.26-1.11-.36-1-.26-1.09-1.76-1.87-2.49a3.27,3.27,0,0,0-1.64-.63l-8.09-1.42a2.75,2.75,0,0,1-1.48-.57c-.33-.31-.49-.77-.81-1.1a3.08,3.08,0,0,0-2.11-.62l-7.79-.29a3.61,3.61,0,0,1-1.66-.34,1.22,1.22,0,0,1-.63-1.43c-3.1-1.34-6.57-1.45-9.94-1.51q-6.26-.09-12.52,0" style="fill:none;stroke:#263238;stroke-linecap:round;stroke-linejoin:round"></path><path d="M166,412.22a35.47,35.47,0,0,1,9.72-2,2,2,0,0,1,1,.11,8.9,8.9,0,0,1,.79.58,2.71,2.71,0,0,0,1.49.3l8.57.1c.06.26.11.52.17.78h9.16l.19.81,8-.09a1,1,0,0,1,.64.13c.21.15.27.42.4.65.46.87,1.63,1,2.61,1.08a16.8,16.8,0,0,1,7.13,2.44" style="fill:none;stroke:#263238;stroke-linecap:round;stroke-linejoin:round"></path><path d="M177.83,406.45l5.16-1.29a.88.88,0,0,1,.64,0c.25.11.35.42.54.61a1.46,1.46,0,0,0,1.14.29,13.08,13.08,0,0,0,4.41-.93,9.67,9.67,0,0,1,1.87-.66,8.06,8.06,0,0,1,3.39.43,30.82,30.82,0,0,0,6.47.95c1.42.05,2.85,0,4.26.14a30.24,30.24,0,0,1,4.5.94l5.93,1.56c3.64,1,7.37,1.95,10.45,4.12" style="fill:none;stroke:#263238;stroke-linecap:round;stroke-linejoin:round"></path><path d="M185.43,401.93l4.93-.29A11.89,11.89,0,0,1,196,399.8a22.21,22.21,0,0,1,3.82.16l4.87.46a40,40,0,0,0,7.73.25c0,.67.89.88,1.56.85l4.09-.16a1.78,1.78,0,0,0,.7,1.51,3.48,3.48,0,0,0,1.13.5,26.62,26.62,0,0,0,9.48,1,2.3,2.3,0,0,1,1.25.12,6.34,6.34,0,0,1,.76.61,4.62,4.62,0,0,0,1.74.64,14.42,14.42,0,0,1,5.65,2.73l-.2-1.32" style="fill:none;stroke:#263238;stroke-linecap:round;stroke-linejoin:round"></path><path d="M248.13,404.56c-1.53.9-3.17-.85-4.73-1.68s-3.33-.72-5-.87c-3.91-.34-7.59-1.94-11.43-2.8a60.67,60.67,0,0,0-9-1.09l-9.52-.65" style="fill:none;stroke:#263238;stroke-linecap:round;stroke-linejoin:round"></path></g><path d="M162.91,355.15c-5.09,17.68-28.72,25.9-28.72,25.9s-31.92,12.13-34-17.73c0,0,1.59-14.59,11.12-20,0,0,6.92-13.74,17.36-19.62" style="fill:#E37575"></path><g style="clip-path:url(#freepik--clip-path-4--inject-268)"><path d="M156.37,366.54c-8.79,9.85-22.18,14.51-22.18,14.51S102.75,393,100.23,364l3.18-6s1.89-12.41,12-12.81,18.57,2.9,20.42,15.4c1.5,10.15-1.54,13.57-2.72,14.5,2-1.4,9.88-8.1,4.56-24.27a5.79,5.79,0,0,1,7,2.74c2.45,4.33-1.09,20-1.21,20.55A103.41,103.41,0,0,0,156.37,366.54Z" style="fill-opacity:0.7000000000000001;opacity:0.30000000000000004"></path></g><path d="M162.91,355.15c-5.09,17.68-28.72,25.9-28.72,25.9s-31.92,12.13-34-17.73c0,0,1.59-14.59,11.12-20,0,0,6.92-13.74,17.36-19.62" style="fill:none;stroke:#263238;stroke-linecap:round;stroke-linejoin:round"></path><path d="M147,329s18.28,6.27,12.9,27.2" style="fill:none;stroke:#263238;stroke-linecap:round;stroke-linejoin:round"></path><path d="M134.15,364.94a12.34,12.34,0,0,1-8.37,11.15l-4.64,3.13-11.49,6.32,1.64,3.88c8.66,0,9.56,2.54,8.66,5.23s-12.84,4-14.93,4.48-11.94-2.84-14.63-3.89-3.52-6.38-3.52-6.38L85,367a12.64,12.64,0,0,1,5.28-7.1s2.33-4.54,4.87-5.59,10.22.81,10.22.81S112,345,121.9,346.91C131.59,348.79,134.61,359.51,134.15,364.94Z" style="fill:#fff;stroke:#263238;stroke-linecap:round;stroke-linejoin:round"></path><path d="M105.39,355.15a70.81,70.81,0,0,1,7.69,2.18" style="fill:none;stroke:#263238;stroke-linecap:round;stroke-linejoin:round"></path><polygon points="116.84 393.12 122.29 398.72 120.36 391.15 81.27 321.26 77.75 323.23 116.84 393.12" style="fill:#E37575;stroke:#263238;stroke-linecap:round;stroke-linejoin:round"></polygon><path d="M80.2,329.15l-5.08-9.1s.28-1,2-2a4.11,4.11,0,0,1,2.81-.71l9.81,17.53a5,5,0,0,0-2.81.71,3.57,3.57,0,0,0-1.74,1.84l7.51,13.42-1.3-.14L80.07,330.39Z" style="fill:#E37575;stroke:#263238;stroke-linecap:round;stroke-linejoin:round"></path><path d="M94.72,366.28s6.87,4,9,7.17c0,0,10.15,5.77,10.15,10.15,0,3.81-2.54,4-2.54,4s3.44,2.07,4,4.72-1.49,4.91-2.09,4.67-20.75-5.46-25.52-7.7S79.64,384.2,84,371.21A17.16,17.16,0,0,1,85,367c.75-1.64,4.63-5.57,4.63-5.57" style="fill:#fff"></path><path d="M94.72,366.28s6.87,4,9,7.17c0,0,10.15,5.77,10.15,10.15,0,3.81-2.54,4-2.54,4s3.44,2.07,4,4.72-1.49,4.91-2.09,4.67-20.75-5.46-25.52-7.7S79.64,384.2,84,371.21A17.16,17.16,0,0,1,85,367c.75-1.64,4.63-5.57,4.63-5.57" style="fill:none;stroke:#263238;stroke-linecap:round;stroke-linejoin:round"></path><path d="M86.06,374.52c.75,2.36,9.44,4.45,12.63,6.84s12.6,6.22,12.6,6.22" style="fill:none;stroke:#263238;stroke-linecap:round;stroke-linejoin:round"></path><path d="M122.94,361.46s4.18,1.59,5.77,4.77,1.79,9,0,10.55-10,9.16-11.15,10.55-7.76-3.18,0-12.93c0,0-.2-5.38,1.2-7.17" style="fill:#fff"></path><path d="M122.94,361.46s4.18,1.59,5.77,4.77,1.79,9,0,10.55-10,9.16-11.15,10.55-7.76-3.18,0-12.93c0,0-.2-5.38,1.2-7.17" style="fill:none;stroke:#263238;stroke-linecap:round;stroke-linejoin:round"></path><path d="M130,344.22s8.5,2,9.82,13.8-2.38,19.07-11.15,23" style="fill:none;stroke:#263238;stroke-linecap:round;stroke-linejoin:round"></path><g style="opacity:0.4"><path d="M132.51,332.85c2.17-2.49,5-5.13,8.42-5.52" style="fill:none;stroke:#263238;stroke-linecap:round;stroke-linejoin:round"></path><path d="M126.68,341.52a47.75,47.75,0,0,1,3-4.95" style="fill:none;stroke:#263238;stroke-linecap:round;stroke-linejoin:round"></path><path d="M140.93,352s12.85-1.75,17.6-7.16" style="fill:none;stroke:#263238;stroke-linecap:round;stroke-linejoin:round"></path><path d="M151.39,367.31a17.53,17.53,0,0,0,6.15-4.67" style="fill:none;stroke:#263238;stroke-linecap:round;stroke-linejoin:round"></path><path d="M140.93,370.4a36.87,36.87,0,0,0,6.24-1.42" style="fill:none;stroke:#263238;stroke-linecap:round;stroke-linejoin:round"></path></g><path d="M334.89,300.69c21,1.2,63.13,43.91,72.63,54.46s25,26.32,30,38.8C445.2,413,426,430.52,407,429.51s-58.55-41.93-58.55-41.93-30.17-28.11-21.87-53.51" style="fill:#E37575"></path><g style="clip-path:url(#freepik--clip-path-5--inject-268)"><path d="M389.57,371.22S358.13,382,344.08,383c-1.53-1.7-3.33-3.82-5.2-6.28-2.39-5.77-6.59-17.68-1-18.71,7.38-1.35,5.84,11.49,10,17.64,0,0,7.12-17,16.62-16.92S370,370.4,370,370.4,386.41,365.46,389.57,371.22Z" style="fill-opacity:0.7000000000000001;opacity:0.30000000000000004"></path><path d="M407,429.51c-3.3-.17-7.22-1.55-11.44-3.71,15.47-2.1,30.26-5.67,34.61-13.28s2-23-2.2-34c4.13,5.33,7.64,10.65,9.58,15.48C445.2,413,426,430.52,407,429.51Z" style="fill-opacity:0.7000000000000001;opacity:0.30000000000000004"></path></g><path d="M334.89,300.69c21,1.2,63.13,43.91,72.63,54.46s25,26.32,30,38.8C445.2,413,426,430.52,407,429.51s-58.55-41.93-58.55-41.93-30.17-28.11-21.87-53.51" style="fill:none;stroke:#263238;stroke-linecap:round;stroke-linejoin:round"></path><path d="M312.48,365s9.74,14.6,32,18.53" style="fill:none;stroke:#263238;stroke-linecap:round;stroke-linejoin:round"></path><path d="M314.81,393.1l-17.31.23s-23.53-7.58-26.61-9.58-23,7.95-25.45,9A18.82,18.82,0,0,0,241,395.6a17,17,0,0,1-3.83,2.75c-1.77.79-4.65,5.47-4.65,5.47s-7.6,1.8-4.77,4,12.15.92,15.7-.21,10.18-.13,10.18-.13,9.83,14.57,35.75,9.13l25.76,2.34" style="fill:#fff;stroke:#263238;stroke-linecap:round;stroke-linejoin:round"></path><path d="M232.53,403.82s6.57-2.5,9.75-3.9,12.16-2.37,12.16-2.37-1-4.4,3.17-6,4.84-4.65,4.84-4.65" style="fill:none;stroke:#263238;stroke-linecap:round;stroke-linejoin:round"></path><path d="M241,395.6s8.44-2.91,10.48-2.93" style="fill:none;stroke:#263238;stroke-linecap:round;stroke-linejoin:round"></path><path d="M338.65,382.6h0a7.88,7.88,0,0,1,2,.36,3,3,0,0,0,.43.12A7.45,7.45,0,0,1,338.65,382.6Z" style="fill-opacity:0.7000000000000001;opacity:0.30000000000000004"></path><path d="M389.57,371.22s-22.39,7.66-37.82,10.68c10.13-2.6,24.51-8.11,37.82-10.69Z" style="fill-opacity:0.7000000000000001;opacity:0.30000000000000004"></path><path d="M394.45,370.4c-20.84,2.83-46.14,15.11-53.81,12.55s-25.85,8.69-25.85,8.69l-10.7.14s-7.91,17.54-3.16,30.24L312,423.11s-.82,7,28.23,8.9,82.94,4.08,93.44-14.84" style="fill:#E37575"></path><g style="clip-path:url(#freepik--clip-path-6--inject-268)"><path d="M433.71,417.17c-10.5,18.92-64.39,16.71-93.44,14.84s-28.23-8.9-28.23-8.9l-8.27-.81c-.23-6.58.5-18.93,8.71-23.13,0,0-1.38,18.48,0,21.09s39.38,10,59.94,8c20.41-1.95,50.69-4.18,57.6-15.49Z" style="fill-opacity:0.7000000000000001;opacity:0.30000000000000004"></path></g><path d="M394.45,370.4c-20.84,2.83-46.14,15.11-53.81,12.55s-25.85,8.69-25.85,8.69l-10.7.14s-7.91,17.54-3.16,30.24L312,423.11s-.82,7,28.23,8.9,82.94,4.08,93.44-14.84" style="fill:none;stroke:#263238;stroke-linecap:round;stroke-linejoin:round"></path><path d="M353.86,381.46c.57-.3,5.88-13.47,11.44-14.65" style="fill:none;stroke:#263238;stroke-linecap:round;stroke-linejoin:round"></path><path d="M312,423.11c0-1.3-3.63-18.22.44-23.94" style="fill:none;stroke:#263238;stroke-linecap:round;stroke-linejoin:round"></path><path d="M333.12,327.33s5.08-14,18.63-15.4" style="fill:none;stroke:#263238;stroke-linecap:round;stroke-linejoin:round"></path><g style="opacity:0.4"><path d="M357.55,347.32C358,349,357,351,360,352c7,1,10,6,14,11a16.41,16.41,0,0,1,5.54,3.81" style="fill:none;stroke:#263238;stroke-linecap:round;stroke-linejoin:round"></path><path d="M341.07,325.55a78.93,78.93,0,0,1,14.39,17.91" style="fill:none;stroke:#263238;stroke-linecap:round;stroke-linejoin:round"></path><path d="M328.71,396.75c-2.33.75-4.64,1.55-6.93,2.42" style="fill:none;stroke:#263238;stroke-linecap:round;stroke-linejoin:round"></path><path d="M404.09,379.39C383,390,360,389,337,394c-1,0-3,1-4.35,1.52" style="fill:none;stroke:#263238;stroke-linecap:round;stroke-linejoin:round"></path><path d="M353.86,315.79C363,320,370,328,377,335c7,9,13,19,24,24,3,2,6,5,6,10,1,2,5,4,1.2,8" style="fill:none;stroke:#263238;stroke-linecap:round;stroke-linejoin:round"></path><path d="M380.88,405.93C361,409,341,415,320.54,412.2" style="fill:none;stroke:#263238;stroke-linecap:round;stroke-linejoin:round"></path><path d="M426.22,381.9c3.12,15.09-16.6,18-27.09,20.33q-7.32,1.61-14.69,3" style="fill:none;stroke:#263238;stroke-linecap:round;stroke-linejoin:round"></path><path d="M330.47,426.18a46,46,0,0,1-11.17-3.07" style="fill:none;stroke:#263238;stroke-linecap:round;stroke-linejoin:round"></path><path d="M436.24,402.59C436,412,427,417,420,419c-28,10-57,9-85.76,7.71" style="fill:none;stroke:#263238;stroke-linecap:round;stroke-linejoin:round"></path><path d="M339,355.11c3.61,3.77,8.31,5.66,10.05,10.94,1.06,3.23,2.07,7.18,5.94,8.09" style="fill:none;stroke:#263238;stroke-linecap:round;stroke-linejoin:round"></path><path d="M330.22,340.32A47.12,47.12,0,0,0,336.4,352" style="fill:none;stroke:#263238;stroke-linecap:round;stroke-linejoin:round"></path></g><path d="M249.26,321.26c-.12-.16-.26-.32-.4-.48-4.19-4.91-14.36-8.46-17.45-9.45l-.9-.28s7.07-52.61,40.68-35.65S253.88,327.34,249.26,321.26Z" style="fill:#fff;stroke:#263238;stroke-linecap:round;stroke-linejoin:round"></path><path d="M248.86,320.78c-4.19-4.91-14.36-8.46-17.45-9.45.59-1.59,1.12-2.66,1.12-2.66l29.92-18S263.27,311.48,248.86,320.78Z" style="fill:#263238"></path><path d="M274.49,258c-.8-45.22-31.48-77.5-71.8-54.26-32.95,19-29.42,55.11-11.26,73.65,10.74,11,2.15,21.4,19,35.61,5.71,4.82,20.23,10.19,25.28,8.56,17.78-5.76,32.35-25.44,29.74-33.5" style="fill:#fff;stroke:#263238;stroke-linecap:round;stroke-linejoin:round"></path><path d="M207.63,264.71s6.75-8.66,20-6.48" style="fill:none;stroke:#263238;stroke-linecap:round;stroke-linejoin:round"></path><path d="M193.41,269.31s-6.76-2.38-7.38.27" style="fill:none;stroke:#263238;stroke-linecap:round;stroke-linejoin:round"></path><ellipse cx="222.52" cy="270.61" rx="1.69" ry="2.82" transform="matrix(0.81, -0.59, 0.59, 0.81, -116.28, 181.39)" style="fill:#263238"></ellipse><path d="M199.67,277.46c.91,1.26,1,2.73.28,3.28s-2.12,0-3-1.3-1-2.73-.28-3.28S198.76,276.2,199.67,277.46Z" style="fill:#263238"></path><path d="M200.31,275.4c3.18,2.66,7.08,6.64,3.54,14.25s5.19,8.49,9.93,5.26" style="fill:#fff;stroke:#263238;stroke-linecap:round;stroke-linejoin:round"></path><path d="M217,293.56s3.08-2.84-1.9-5.85" style="fill:#fff;stroke:#263238;stroke-linecap:round;stroke-linejoin:round"></path><path d="M214.46,303.18c.91,1.51,5.55-.43,6.91-.73a38.52,38.52,0,0,1,3.64-2.19c1.34-.63,5.32-2.68,5.5-5" style="fill:#fff;stroke:#263238;stroke-linecap:round;stroke-linejoin:round"></path><path d="M217.64,305.92c4.18,4.07,11.43-.38,12.87-6.44" style="fill:#fff;stroke:#263238;stroke-linecap:round;stroke-linejoin:round"></path><path d="M219.63,191.45c-29,5.38-44.79,24.86-45.12,42.33,0,0-11,20.59-2.47,35.54,0,0,.42-.52,1.11-1.22a51.45,51.45,0,0,1-.61-7.54,37.26,37.26,0,0,1,.74-7.53,23.94,23.94,0,0,1,2.76-7,24,24,0,0,0-2.17,7.08,37.06,37.06,0,0,0-.13,7.37,47.38,47.38,0,0,0,.95,6.17c1.59-1.32,3.69-2.6,5.65-2.39a16.22,16.22,0,0,0,2.7,0c-.41-2-.75-4.11-1-6.18a56.3,56.3,0,0,1-.27-7.22,34.29,34.29,0,0,1,1.05-7.08,34.76,34.76,0,0,0-.15,7.06,53.87,53.87,0,0,0,1.16,6.93q.75,3.09,1.79,6.09a16.91,16.91,0,0,0,6.37-3.09,7,7,0,0,1,1.7-1c-.15-1-.29-2-.4-3a52.78,52.78,0,0,1-.29-8.52,29,29,0,0,1,1.61-8.27,28,28,0,0,0-.1,8.22,49,49,0,0,0,1.74,8c.33,1.16.71,2.3,1.12,3.43a8.62,8.62,0,0,0,3.67.25c2.19-.47,4.42-.31,6.5-1.16-.25-.71-.52-1.42-.74-2.14a54,54,0,0,1-1.76-7.6,37.34,37.34,0,0,1-.27-7.76,36.25,36.25,0,0,0,.87,7.65,53,53,0,0,0,2.29,7.31c.26.64.55,1.26.83,1.89a7.23,7.23,0,0,0,1.35-1.13c2.74-2.89,6.78-4.86,9.18-3.64a13.72,13.72,0,0,0,1.56.68c-.08-.29-.18-.56-.27-.85a76.78,76.78,0,0,1-1.83-8,48,48,0,0,1-.6-8.19,47.79,47.79,0,0,0,1.48,8,76,76,0,0,0,2.66,7.65c.28.68.59,1.34.89,2,1.91.25,3.74-.18,4.31-2.26a2.32,2.32,0,0,1,.82-1.31c-.15-.37-.3-.75-.44-1.14a59.8,59.8,0,0,1-1.84-6,49.47,49.47,0,0,1-1.17-6.11,47.09,47.09,0,0,1-.41-6.16,46.08,46.08,0,0,0,1.29,6,47.86,47.86,0,0,0,2,5.72,56.44,56.44,0,0,0,2.59,5.44c.4.74.83,1.47,1.27,2.2a11.37,11.37,0,0,1,1.89.9s-5.15-12.82-4.14-25.17c0,0,6.21,26.38,25,36l3.94,7s6.71-5.5,12-.53,7.16,1.59,7.16,1.59,8.32-16.24-1.66-47.07S242.76,187.16,219.63,191.45Z" style="fill:#263238"></path><path d="M266.82,278.14s-.38,2.64,2.77,2.85,5.82-6.34,7.39-18.28c1.68-12.69-2.21-20.31-9.75-20.38s-9.6,7.93-10.23,12.55a33.68,33.68,0,0,0,.48,11.78" style="fill:#fff;stroke:#263238;stroke-linecap:round;stroke-linejoin:round"></path><path d="M272.12,276.47a1.74,1.74,0,1,1-1.74-1.74A1.74,1.74,0,0,1,272.12,276.47Z" style="fill:#E37575;stroke:#263238;stroke-linecap:round;stroke-linejoin:round"></path><path d="M226.65,297s-4.58,1.15-5.73,1.54a6.94,6.94,0,0,0-2.41,2.15s-2.81.07-3.43,1.28" style="fill:#fff;stroke:#263238;stroke-linecap:round;stroke-linejoin:round"></path><g style="opacity:0.2"><path d="M215.08,218s-5.62,11.67-3.2,28.48" style="fill:none;stroke:#fff;stroke-linecap:round;stroke-linejoin:round"></path><path d="M204.5,218s-11.75,15.15-5,36.75" style="fill:none;stroke:#fff;stroke-linecap:round;stroke-linejoin:round"></path><path d="M186,257.88c.19-1-5.74-23.72,4.74-35.58" style="fill:none;stroke:#fff;stroke-linecap:round;stroke-linejoin:round"></path><path d="M170.79,254.7s2.94-22.1,13.74-30" style="fill:none;stroke:#fff;stroke-linecap:round;stroke-linejoin:round"></path><path d="M231.41,218S244.2,239.51,261,238.32" style="fill:none;stroke:#fff;stroke-linecap:round;stroke-linejoin:round"></path><path d="M237.47,211.28s16,14.38,29.56,11" style="fill:none;stroke:#fff;stroke-linecap:round;stroke-linejoin:round"></path></g></g></svg>